<?xml version="1.0" encoding="UTF-8" standalone="no"?><svg xmlns="http://www.w3.org/2000/svg" xmlns:xlink="http://www.w3.org/1999/xlink" contentScriptType="text/ecmascript" fill="#000000" width="480" zoomAndPan="magnify" contentStyleType="text/css" viewBox="6.0 6.0 480.0 480.0" height="480" preserveAspectRatio="xMidYMid meet" version="1"><g id="change1_1"><circle fill="#ffffff" r="240" cx="246" cy="246"/></g><g><g id="change2_4"><path fill="#000000" d="M330.7,386.5H161.6c-14,0-25.4-11.4-25.4-25.4V240.6c0-4.9,1.4-9.6,4-13.7c1.1-1.7,3.3-2.2,5-1.1 c1.7,1.1,2.2,3.3,1.1,5c-1.9,2.9-2.9,6.3-2.9,9.8v120.5c0,10,8.1,18.1,18.1,18.1h169.1c10,0,18.1-8.1,18.1-18.1V240.6 c0-3.5-1-6.9-2.9-9.8c-1.1-1.7-0.6-3.9,1.1-5c1.7-1.1,3.9-0.6,5,1.1c2.7,4.1,4.1,8.9,4.1,13.7v120.5 C356.1,375.1,344.7,386.5,330.7,386.5z"/></g><g id="change2_13"><path fill="#000000" d="M143.3,232.5c-0.7,0-1.4-0.2-2-0.6c-1.7-1.1-2.2-3.3-1.1-5c3.8-5.9,10.6-13.6,16.6-20.4c3-3.4,5.8-6.5,8-9.2 c1.3-1.5,3.6-1.8,5.1-0.5c1.5,1.3,1.8,3.6,0.5,5.1c-2.3,2.8-5.1,6-8.2,9.4c-5.9,6.6-12.5,14.1-16,19.5 C145.7,231.9,144.5,232.5,143.3,232.5z"/></g><g id="change2_9"><path fill="#000000" d="M349,232.4c-1.2,0-2.4-0.6-3.1-1.7c-3.5-5.4-10.1-12.8-15.9-19.4c-3-3.4-5.9-6.7-8.2-9.5 c-1.3-1.5-1.1-3.8,0.5-5.1c1.5-1.3,3.8-1.1,5.1,0.5c2.2,2.7,5.1,5.9,8.1,9.3c6,6.8,12.7,14.4,16.5,20.3c1.1,1.7,0.6,3.9-1.1,5 C350.3,232.2,349.6,232.4,349,232.4z"/></g><g id="change2_8"><path fill="#000000" d="M324.6,256.9c-2,0-3.6-1.6-3.6-3.6v-34.4c0-2,1.6-3.6,3.6-3.6c2,0,3.6,1.6,3.6,3.6v34.4 C328.3,255.3,326.6,256.9,324.6,256.9z"/></g><g id="change2_1"><path fill="#000000" d="M324.6,256.9c-2,0-3.6-1.6-3.6-3.6V143.7c0-2.8-2.3-5.1-5.1-5.1H176.5c-2.8,0-5.1,2.3-5.1,5.1v109.5 c0,2-1.6,3.6-3.6,3.6c-2,0-3.6-1.6-3.6-3.6V143.7c0-6.8,5.6-12.4,12.4-12.4h139.4c6.8,0,12.4,5.6,12.4,12.4v109.5 C328.3,255.3,326.6,256.9,324.6,256.9z"/></g><g id="change2_3"><path fill="#000000" d="M330.7,386.5H161.6c-8.7,0-16.6-4.4-21.4-11.7c-0.9-1.4-0.7-3.3,0.5-4.5l72-72c0.7-0.7,1.6-1.1,2.6-1.1l0,0 c1,0,1.9,0.4,2.6,1.1l23.6,23.6c2.6,2.6,6.8,2.6,9.4,0l23.6-23.6c0.7-0.7,1.6-1.1,2.6-1.1s1.9,0.4,2.6,1.1l72,72 c1.2,1.2,1.4,3.1,0.5,4.5C347.3,382.1,339.4,386.5,330.7,386.5z M148.1,373.2c3.4,3.8,8.3,6.1,13.5,6.1h169.1 c5.2,0,10.1-2.2,13.5-6.1L277,306l-21,21c-5.4,5.4-14.3,5.4-19.7,0l-21-21L148.1,373.2z"/></g><g><g id="change2_5"><path fill="#000000" d="M270.2,246.4c-0.4,0-0.9-0.1-1.3-0.2L210.2,224c-1.4-0.5-2.3-1.9-2.3-3.4v-37.3c0-1.5,0.9-2.9,2.3-3.4 l58.6-22.2c1.1-0.4,2.4-0.3,3.4,0.4c1,0.7,1.6,1.8,1.6,3v81.7c0,1.2-0.6,2.3-1.6,3C271.6,246.2,270.9,246.4,270.2,246.4z M215.2,218.1l51.4,19.4v-71.1l-51.4,19.4L215.2,218.1L215.2,218.1z"/></g><g id="change2_12"><path fill="#000000" d="M211.5,224.2h-14.4c-5.5,0-9.9-4.4-9.9-9.9v-24.8c0-5.5,4.4-9.9,9.9-9.9h14.4c2,0,3.6,1.6,3.6,3.6v37.3 C215.2,222.6,213.5,224.2,211.5,224.2z M197.1,186.9c-1.4,0-2.6,1.2-2.6,2.6v24.8c0,1.4,1.2,2.6,2.6,2.6h10.8v-30H197.1z"/></g><g id="change2_10"><path fill="#000000" d="M282.2,251.8h-7.3c-4.6,0-8.4-3.8-8.4-8.4v-86.1c0-4.6,3.8-8.4,8.4-8.4h7.3c4.6,0,8.4,3.8,8.4,8.4v86.1 C290.6,248.1,286.8,251.8,282.2,251.8z M274.9,156.3c-0.6,0-1.1,0.5-1.1,1.1v86.1c0,0.6,0.5,1.1,1.1,1.1h7.3 c0.6,0,1.1-0.5,1.1-1.1v-86.1c0-0.6-0.5-1.1-1.1-1.1H274.9z"/></g><g id="change2_2"><path fill="#000000" d="M217.3,271.3h-4.6c-4.8,0-8.8-3.8-9.2-8.9l-3.4-41.5c-0.1-1,0.3-2,0.9-2.8c0.7-0.7,1.7-1.2,2.7-1.2h7.7 c0.4,0,0.9,0.1,1.3,0.2l8,3c1.3,0.5,2.2,1.7,2.3,3.1l3.4,38.4c0.2,2.4-0.6,4.7-2.2,6.5C222.5,270.2,220,271.3,217.3,271.3z M207.7,224.2l3.1,37.5c0.1,1.1,0.8,2.2,2,2.2h4.6c0.6,0,1.2-0.3,1.6-0.7c0.3-0.3,0.4-0.6,0.4-0.9l-3.2-36.2l-5.3-2L207.7,224.2 L207.7,224.2z"/></g><g id="change2_14"><path fill="#000000" d="M298.1,222.1h-11.1c-2,0-3.6-1.6-3.6-3.6v-36.1c0-2,1.6-3.6,3.6-3.6h11.1c3.9,0,7.1,3.2,7.1,7.1v29.2 C305.1,218.9,301.9,222.1,298.1,222.1z M290.6,214.8h7.3v-28.8h-7.3V214.8z"/></g></g><g id="change2_11"><path fill="#000000" d="M271.3,138.6h-49.1c-1.5,0-2.8-0.9-3.3-2.2c-0.6-1.3-0.3-2.9,0.7-3.9l23.7-24.9c0.7-0.7,1.6-1.1,2.6-1.1 c1,0,1.9,0.4,2.6,1l25.4,24.9c1.1,1,1.4,2.6,0.8,4C274.1,137.7,272.8,138.6,271.3,138.6z M230.7,131.3h31.7L246,115.2L230.7,131.3 z"/></g><g id="change2_7"><path fill="#000000" d="M215.3,304.5c-0.9,0-1.8-0.3-2.5-1L139.9,233c-1.4-1.4-1.5-3.7-0.1-5.1c1.4-1.4,3.7-1.5,5.1-0.1l72.9,70.5 c1.4,1.4,1.5,3.7,0.1,5.1C217.2,304.1,216.3,304.5,215.3,304.5z"/></g><g id="change2_6"><path fill="#000000" d="M277,304.5c-1,0-1.9-0.4-2.6-1.1c-1.4-1.4-1.4-3.7,0.1-5.1l72.9-70.5c1.4-1.4,3.7-1.4,5.1,0.1 c1.4,1.4,1.4,3.7-0.1,5.1l-72.9,70.5C278.8,304.2,277.9,304.5,277,304.5z"/></g></g></svg>