<?xml version="1.0" encoding="UTF-8" standalone="no"?><svg xmlns="http://www.w3.org/2000/svg" xmlns:xlink="http://www.w3.org/1999/xlink" contentScriptType="text/ecmascript" fill="#000000" width="480" zoomAndPan="magnify" contentStyleType="text/css" viewBox="6.0 6.0 480.0 480.0" height="480" preserveAspectRatio="xMidYMid meet" version="1"><g id="change1_1"><circle fill="#013457" r="240" cx="246" cy="246"/></g><g><g><g id="change2_8"><path fill="#ffffff" d="M366.5,378.5h-58.7c-6.1,0-11.1-5-11.1-11.1v-11.1c0-18.7,15.2-34,34-34h12.9c18.7,0,34,15.2,34,34v11.1 C377.6,373.6,372.6,378.5,366.5,378.5z M330.7,329.7c-14.7,0-26.7,12-26.7,26.7v11.1c0,2.1,1.7,3.8,3.8,3.8h58.7 c2.1,0,3.8-1.7,3.8-3.8v-11.1c0-14.7-12-26.7-26.7-26.7H330.7z"/></g><g id="change2_6"><path fill="#ffffff" d="M337.2,319c-12.3,0-22.4-10-22.4-22.4s10-22.4,22.4-22.4s22.4,10,22.4,22.4S349.5,319,337.2,319z M337.2,281.4c-8.3,0-15.1,6.8-15.1,15.1s6.8,15.1,15.1,15.1s15.1-6.8,15.1-15.1S345.5,281.4,337.2,281.4z"/></g></g><g><g id="change2_13"><path fill="#ffffff" d="M273.7,378.5H215c-6.1,0-11.1-5-11.1-11.1v-11.1c0-18.7,15.2-34,34-34h12.9c18.7,0,34,15.2,34,34v11.1 C284.7,373.6,279.8,378.5,273.7,378.5z M237.9,329.7c-14.7,0-26.7,12-26.7,26.7v11.1c0,2.1,1.7,3.8,3.8,3.8h58.7 c2.1,0,3.8-1.7,3.8-3.8v-11.1c0-14.7-12-26.7-26.7-26.7H237.9z"/></g><g id="change2_10"><path fill="#ffffff" d="M244.3,319c-12.3,0-22.4-10-22.4-22.4s10-22.4,22.4-22.4c12.3,0,22.4,10,22.4,22.4S256.7,319,244.3,319z M244.3,281.4c-8.3,0-15.1,6.8-15.1,15.1s6.8,15.1,15.1,15.1c8.3,0,15.1-6.8,15.1-15.1S252.7,281.4,244.3,281.4z"/></g></g><g id="change2_12"><path fill="#ffffff" d="M169.7,378.5h-20.1c-12.8,0-23.2-10.4-23.2-23.2V247.6c0-2,1.6-3.6,3.6-3.6s3.6,1.6,3.6,3.6v107.7 c0,8.8,7.1,15.9,15.9,15.9h20.1c8.8,0,15.9-7.1,15.9-15.9V247.6c0-2,1.6-3.6,3.6-3.6c2,0,3.6,1.6,3.6,3.6v107.7 C192.9,368.1,182.5,378.5,169.7,378.5z"/></g><g id="change2_2"><path fill="#ffffff" d="M159.6,378.5c-2,0-3.6-1.6-3.6-3.6v-76.1c0-2,1.6-3.6,3.6-3.6s3.6,1.6,3.6,3.6v76.1 C163.3,376.9,161.6,378.5,159.6,378.5z"/></g><g id="change2_9"><path fill="#ffffff" d="M129.3,310.1c-12.8,0-23.2-10.4-23.2-23.2V243c0-15.5,12.6-28.1,28.1-28.1h54.1l36.1-20.5 c4.2-2.4,9.5-2.4,13.6,0.1c3.7,2.2,6,5.9,5.9,10c0,4.1-2.2,10.2-12.4,16l-38.7,22v6.5c0,2-1.6,3.6-3.6,3.6c-2,0-3.6-1.6-3.6-3.6 v-8.6c0-1.3,0.7-2.5,1.8-3.2l40.5-23.1c7.8-4.5,8.7-8.2,8.7-9.7c0-2.1-1.6-3.3-2.3-3.7c-1.5-0.9-4-1.4-6.4,0l-36.9,21 c-0.5,0.3-1.2,0.5-1.8,0.5h-55c-11.5,0-20.8,9.3-20.8,20.8v43.9c0,8.8,7.1,15.9,15.9,15.9c2,0,3.6,1.6,3.6,3.6 C133,308.5,131.3,310.1,129.3,310.1z"/></g><g id="change2_5"><path fill="#ffffff" d="M160.5,209.5c-14.1,0-25.5-11.5-25.5-25.5s11.5-25.5,25.5-25.5c14.1,0,25.5,11.5,25.5,25.5 C186,198,174.6,209.5,160.5,209.5z M160.5,165.7c-10.1,0-18.2,8.2-18.2,18.2s8.2,18.2,18.2,18.2s18.2-8.2,18.2-18.2 S170.5,165.7,160.5,165.7z"/></g><g id="change2_15"><path fill="#ffffff" d="M370.2,251.2H211.3c-2,0-3.6-1.6-3.6-3.6v-19.8c0-2,1.6-3.6,3.6-3.6c2,0,3.6,1.6,3.6,3.6V244h151.6V143H215 v63c0,2-1.6,3.6-3.6,3.6s-3.6-1.6-3.6-3.6v-66.7c0-2,1.6-3.6,3.6-3.6h158.8c2,0,3.6,1.6,3.6,3.6v108.3 C373.8,249.6,372.2,251.2,370.2,251.2z"/></g><g id="change2_7"><path fill="#ffffff" d="M382.6,143H198.9c-2,0-3.6-1.6-3.6-3.6v-21.3c0-2,1.6-3.6,3.6-3.6h183.7c2,0,3.6,1.6,3.6,3.6v21.3 C386.2,141.3,384.6,143,382.6,143z M202.5,135.7h176.4v-14H202.5V135.7z"/></g><g id="change2_1"><path fill="#ffffff" d="M290.7,269.7c-2,0-3.6-1.6-3.6-3.6v-18.4c0-2,1.6-3.6,3.6-3.6c2,0,3.6,1.6,3.6,3.6V266 C294.4,268,292.8,269.7,290.7,269.7z"/></g><g id="change2_4"><path fill="#ffffff" d="M290.7,294c-8.7,0-15.8-7.1-15.8-15.8s7.1-15.8,15.8-15.8s15.8,7.1,15.8,15.8S299.5,294,290.7,294z M290.7,269.7c-4.7,0-8.6,3.8-8.6,8.6s3.8,8.6,8.6,8.6c4.7,0,8.6-3.8,8.6-8.6S295.5,269.7,290.7,269.7z"/></g><g id="change2_3"><path fill="#ffffff" d="M346.3,162.3h-111c-2,0-3.6-1.6-3.6-3.6s1.6-3.6,3.6-3.6h111c2,0,3.6,1.6,3.6,3.6S348.3,162.3,346.3,162.3z"/></g><g id="change2_11"><path fill="#ffffff" d="M346.3,185.5h-111c-2,0-3.6-1.6-3.6-3.6c0-2,1.6-3.6,3.6-3.6h111c2,0,3.6,1.6,3.6,3.6 C349.9,183.8,348.3,185.5,346.3,185.5z"/></g><g id="change2_16"><path fill="#ffffff" d="M346.3,208.7h-106c-2,0-3.6-1.6-3.6-3.6c0-2,1.6-3.6,3.6-3.6h106c2,0,3.6,1.6,3.6,3.6 C349.9,207.1,348.3,208.7,346.3,208.7z"/></g><g id="change2_14"><path fill="#ffffff" d="M346.3,231.9h-111c-2,0-3.6-1.6-3.6-3.6c0-2,1.6-3.6,3.6-3.6h111c2,0,3.6,1.6,3.6,3.6 C349.9,230.3,348.3,231.9,346.3,231.9z"/></g></g></svg>