<?xml version="1.0" encoding="UTF-8" standalone="no"?><svg xmlns="http://www.w3.org/2000/svg" xmlns:xlink="http://www.w3.org/1999/xlink" contentScriptType="text/ecmascript" fill="#000000" width="512" zoomAndPan="magnify" contentStyleType="text/css" viewBox="0.0 0.0 512.0 512.0" height="512" preserveAspectRatio="xMidYMid meet" version="1"><g id="change1_1"><circle fill="#ffffff" clip-rule="evenodd" r="256" fill-rule="evenodd" cx="256" cy="256"/></g><g fill="#000000" clip-rule="evenodd" fill-rule="evenodd"><g id="change2_2"><path d="M250.16,355.38v-17.76h5.79c0.08,0,0.15,0,0.23,0s0.15,0,0.23,0h5.79v17.76c-1.91-0.54-3.93-0.83-6.01-0.83 C254.1,354.55,252.07,354.84,250.16,355.38z"/></g><g id="change2_3"><path d="M108.72,130.57c0,5.09,4.14,9.22,9.22,9.22h8.29h259.88h8.29c5.09,0,9.22-4.14,9.22-9.22s-4.14-9.22-9.22-9.22 H117.94C112.86,121.35,108.72,125.49,108.72,130.57z"/></g><g id="change2_4"><path d="M150.19,170.35v21.7c0,2.4,1.95,4.34,4.34,4.34h21.7c2.4,0,4.34-1.95,4.34-4.34v-21.7 c0-2.4-1.95-4.34-4.34-4.34h-21.71C152.13,166,150.19,167.96,150.19,170.35z"/></g><g id="change2_5"><path d="M150.19,227.83v21.7c0,2.4,1.95,4.34,4.34,4.34h21.7c2.4,0,4.34-1.95,4.34-4.34v-21.7 c0-2.4-1.95-4.34-4.34-4.34h-21.71C152.13,223.48,150.19,225.44,150.19,227.83z"/></g><g id="change2_6"><path d="M176.23,280.97h-21.7c-2.4,0-4.34,1.95-4.34,4.34v21.7c0,2.39,1.95,4.34,4.34,4.34h21.7 c2.4,0,4.34-1.95,4.34-4.34v-21.7C180.57,282.91,178.62,280.97,176.23,280.97z"/></g><g id="change2_1"><circle r="15.03" cx="256.18" cy="376.63"/><path d="M347.96,311.54H223.55c-1.93,0-3.5-1.56-3.5-3.5c0-1.93,1.56-3.5,3.5-3.5h124.41c1.93,0,3.5,1.56,3.5,3.5 C351.46,309.97,349.89,311.54,347.96,311.54L347.96,311.54z M176.23,273.97c6.25,0,11.33,5.08,11.33,11.33V307 c0,6.25-5.08,11.33-11.33,11.33h-21.7c-6.25,0-11.33-5.08-11.33-11.33v-21.7c0-6.25,5.08-11.33,11.33-11.33H176.23L176.23,273.97z M176.23,260.85h-21.7c-6.25,0-11.33-5.08-11.33-11.33v-21.7c0-6.25,5.08-11.33,11.33-11.33h21.7c6.25,0,11.33,5.08,11.33,11.33 v21.7C187.56,255.77,182.48,260.85,176.23,260.85L176.23,260.85z M129.73,146.79v165.15c0,10.27,8.35,18.62,18.62,18.62h107.6 c0.08-0.01,0.15-0.01,0.23-0.01c0.08,0,0.15,0,0.23,0.01H364c10.27,0,18.62-8.35,18.62-18.62V146.79H129.73L129.73,146.79z M365.66,287.76h-159.8c-1.93,0-3.5-1.56-3.5-3.5s1.56-3.5,3.5-3.5h159.8c1.93,0,3.5,1.56,3.5,3.5 C369.15,286.19,367.59,287.76,365.66,287.76L365.66,287.76z M176.23,203.37h-21.7c-6.25,0-11.33-5.08-11.33-11.33v-21.7 c0-6.25,5.08-11.33,11.33-11.33h21.7c6.25,0,11.33,5.08,11.33,11.33v21.7C187.56,198.29,182.48,203.37,176.23,203.37 L176.23,203.37z M347.96,254.05H223.55c-1.93,0-3.5-1.56-3.5-3.5s1.56-3.5,3.5-3.5h124.41c1.93,0,3.5,1.56,3.5,3.5 C351.46,252.48,349.89,254.05,347.96,254.05L347.96,254.05z M365.66,230.28h-159.8c-1.93,0-3.5-1.56-3.5-3.5s1.56-3.5,3.5-3.5 h159.8c1.93,0,3.5,1.56,3.5,3.5C369.15,228.71,367.59,230.28,365.66,230.28L365.66,230.28z M347.96,195.72H223.55 c-1.93,0-3.5-1.56-3.5-3.5s1.56-3.5,3.5-3.5h124.41c1.93,0,3.5,1.56,3.5,3.5C351.46,194.16,349.89,195.72,347.96,195.72 L347.96,195.72z M365.66,171.94h-159.8c-1.93,0-3.5-1.56-3.5-3.5s1.56-3.5,3.5-3.5h159.8c1.93,0,3.5,1.56,3.5,3.5 S367.59,171.94,365.66,171.94z"/></g></g></svg>