<?xml version="1.0" encoding="UTF-8" standalone="no"?><svg xmlns="http://www.w3.org/2000/svg" xmlns:xlink="http://www.w3.org/1999/xlink" contentScriptType="text/ecmascript" fill="#ffffff" width="2628.3" zoomAndPan="magnify" contentStyleType="text/css" viewBox="184.3 178.5 2628.3 2643.0" height="2643" data-name="Layer 1" preserveAspectRatio="xMidYMid meet" version="1"><g id="change1_1"><circle r="34.5" cx="480.94" cy="1502.43"/></g><g id="change1_2"><circle r="33.92" cx="485.34" cy="1394.57"/></g><g id="change1_3"><circle r="33.35" cx="500.98" cy="1287.75"/></g><g id="change1_4"><circle r="32.77" cx="527.79" transform="rotate(-31.72 527.718 1183.1)" cy="1183.18"/></g><g id="change1_5"><circle r="32.19" cx="565.5" cy="1082.03"/></g><g id="change1_6"><circle r="31.62" cx="613.67" transform="rotate(-76.72 613.632 985.405)" cy="985.42"/></g><g id="change1_7"><circle r="31.04" cx="671.71" transform="rotate(-45 671.708 894.39)" cy="894.39"/></g><g id="change1_8"><circle r="30.46" cx="738.95" cy="809.94"/></g><g id="change1_9"><circle r="29.89" cx="814.63" transform="rotate(-45 814.631 732.959)" cy="732.95"/></g><g id="change1_10"><circle r="29.31" cx="897.92" cy="664.28"/></g><g id="change1_11"><circle r="28.73" cx="987.93" cy="604.69"/></g><g id="change1_12"><circle r="28.16" cx="1083.71" cy="554.88"/></g><g id="change1_13"><circle r="27.58" cx="1184.2" transform="rotate(-22.5 1184.201 515.444)" cy="515.45"/></g><g id="change1_14"><circle r="27" cx="1288.3" cy="486.86"/></g><g id="change1_15"><circle r="26.42" cx="1394.83" cy="469.39"/></g><g id="change1_16"><circle r="25.85" cx="1502.6" cy="463.14"/></g><g id="change1_17"><circle r="25.27" cx="1610.44" transform="rotate(-16.85 1609.968 468.01)" cy="468.06"/></g><g id="change1_18"><circle r="24.69" cx="1717.18" cy="484.23"/></g><g id="change1_19"><circle r="24.12" cx="1821.62" cy="511.56"/></g><g id="change1_20"><circle r="23.54" cx="1922.58" cy="549.77"/></g><g id="change1_21"><circle r="22.96" cx="2018.96" cy="598.41"/></g><g id="change1_22"><circle r="22.39" cx="2109.69" transform="rotate(-45 2109.695 656.896)" cy="656.89"/></g><g id="change1_23"><circle r="21.81" cx="2193.82" cy="724.54"/></g><g id="change1_24"><circle r="21.23" cx="2270.44" transform="rotate(-13.28 2270.902 800.687)" cy="800.59"/></g><g id="change1_25"><circle r="20.66" cx="2338.7" cy="884.22"/></g><g id="change1_26"><circle r="20.08" cx="2397.85" cy="974.52"/></g><g id="change1_27"><circle r="19.5" cx="2447.19" cy="1070.54"/></g><g id="change1_28"><circle r="18.93" cx="2486.13" transform="rotate(-45 2486.126 1171.223)" cy="1171.22"/></g><g id="change1_29"><circle r="18.35" cx="2514.21" cy="1275.46"/></g><g id="change1_30"><circle r="17.77" cx="2531.15" cy="1382.08"/></g><g id="change1_31"><circle r="17.2" cx="2536.88" cy="1489.88"/></g><g id="change1_32"><circle r="16.62" cx="2531.43" cy="1597.7"/></g><g id="change1_33"><path d="M2530.79,1704.35c0-8.86-7.18-16.04-16.04-16.04s-16.04,7.18-16.04,16.04,7.18,16.04,16.04,16.04,16.04-7.18,16.04-16.04Z"/></g><g id="change1_34"><circle r="15.47" cx="2486.9" cy="1808.65"/></g><g id="change1_35"><path d="M2448.19,1894.54c-8.22,0-14.89,6.67-14.89,14.89s6.67,14.89,14.89,14.89,14.89-6.67,14.89-14.89-6.67-14.89-14.89-14.89Z"/></g><g id="change1_36"><circle r="14.31" cx="2399.08" cy="2005.56"/></g><g id="change1_37"><path d="M2353.89,2096.01c0-7.59-6.15-13.74-13.74-13.74s-13.74,6.15-13.74,13.74,6.15,13.74,13.74,13.74,13.74-6.15,13.74-13.74Z"/></g><g id="change1_38"><circle r="13.16" cx="2272.1" cy="2179.81"/></g><g id="change1_39"><path d="M2183.09,2256.05c0,6.95,5.63,12.58,12.58,12.58s12.58-5.63,12.58-12.58-5.63-12.58-12.58-12.58-12.58,5.63-12.58,12.58Z"/></g><g id="change1_40"><path d="M2111.72,2335.92c6.63,0,12-5.37,12-12.01s-5.37-12.01-12-12.01-12.01,5.38-12.01,12.01,5.37,12.01,12.01,12.01Z"/></g><g id="change1_41"><path d="M2021.12,2394.05c6.31,0,11.43-5.12,11.43-11.43s-5.12-11.43-11.43-11.43-11.43,5.12-11.43,11.43,5.12,11.43,11.43,11.43Z"/></g><g id="change1_42"><path d="M1924.86,2442.34c5.99,0,10.85-4.86,10.85-10.85s-4.86-10.85-10.85-10.85-10.85,4.86-10.85,10.85,4.86,10.85,10.85,10.85Z"/></g><g id="change1_43"><path d="M1823.99,2459.65c-5.67,0-10.27,4.6-10.27,10.27s4.6,10.27,10.27,10.27,10.27-4.6,10.27-10.27-4.6-10.27-10.27-10.27Z"/></g><g id="change1_44"><path d="M1729.31,2497.49c0-5.36-4.34-9.7-9.7-9.7s-9.7,4.34-9.7,9.7,4.34,9.7,9.7,9.7,9.7-4.34,9.7-9.7Z"/></g><g id="change1_45"><circle r="9.12" cx="1612.92" cy="2513.91"/></g><g id="change1_46"><path d="M1513.63,2519.12c0-4.72-3.83-8.54-8.54-8.54s-8.54,3.83-8.54,8.54,3.83,8.54,8.54,8.54,8.54-3.83,8.54-8.54Z"/></g><g id="change1_47"><circle r="7.97" cx="1397.3" cy="2513.15"/></g><g id="change1_48"><path d="M1298.12,2495.94c0-4.08-3.31-7.39-7.39-7.39s-7.39,3.31-7.39,7.39,3.31,7.39,7.39,7.39,7.39-3.31,7.39-7.39Z"/></g><g id="change1_49"><circle r="6.81" cx="1186.56" cy="2467.58"/></g><g id="change1_50"><path d="M1085.98,2422.14c-3.44,0-6.24,2.79-6.24,6.24s2.79,6.24,6.24,6.24,6.24-2.79,6.24-6.24-2.79-6.24-6.24-6.24Z"/></g><g id="change1_51"><path d="M990.09,2373.13c-3.13,0-5.66,2.53-5.66,5.66s2.53,5.66,5.66,5.66,5.66-2.53,5.66-5.66-2.53-5.66-5.66-5.66Z"/></g><g id="change1_52"><path d="M899.93,2314.34c-2.81,0-5.08,2.28-5.08,5.08s2.28,5.08,5.08,5.08,5.08-2.28,5.08-5.08-2.28-5.08-5.08-5.08Z"/></g><g id="change1_53"><path d="M816.46,2246.45c-2.49,0-4.51,2.02-4.51,4.51s2.02,4.51,4.51,4.51,4.51-2.02,4.51-4.51-2.02-4.51-4.51-4.51Z"/></g><g id="change1_54"><circle r="3.93" cx="740.59" cy="2174.17"/></g><g id="change1_55"><path d="M669.79,2089.88c0,1.85,1.5,3.35,3.35,3.35s3.35-1.5,3.35-3.35-1.5-3.35-3.35-3.35-3.35,1.5-3.35,3.35Z"/></g><g id="change1_56"><circle r="2.78" cx="614.88" cy="1999"/></g><g id="change1_57"><circle r="2.2" cx="566.49" cy="1902.5"/></g><g id="change1_58"><circle r="1.62" cx="528.55" cy="1801.44"/></g><g id="change1_59"><path d="M500.45,1696.93c0,.58,.47,1.05,1.05,1.05s1.05-.47,1.05-1.05-.47-1.05-1.05-1.05-1.05,.47-1.05,1.05Z"/></g><g id="change1_60"><path d="M485.13,1590.15c0,.26,.21,.47,.47,.47s.47-.21,.47-.47-.21-.47-.47-.47-.47,.21-.47,.47Z"/></g><g id="change1_61"><circle r="34.5" cx="1173.26" cy="647.18"/></g><g id="change1_62"><circle r="33.84" cx="1276.2" cy="614.7"/></g><g id="change1_63"><circle r="33.18" cx="1382.29" transform="rotate(-22.5 1382.3 594.803)" cy="594.81"/></g><g id="change1_64"><circle r="32.51" cx="1490.01" cy="587.9"/></g><g id="change1_65"><circle r="31.85" cx="1597.76" cy="594.09"/></g><g id="change1_66"><circle r="31.19" cx="1703.99" transform="rotate(-9.22 1703.53 613.066)" cy="613.22"/></g><g id="change1_67"><circle r="30.53" cx="1807.16" transform="rotate(-58.28 1807.247 644.951)" cy="644.97"/></g><g id="change1_68"><circle r="29.87" cx="1905.78" transform="rotate(-13.28 1906.132 688.92)" cy="688.82"/></g><g id="change1_69"><circle r="29.21" cx="1998.46" cy="744.16"/></g><g id="change1_70"><circle r="28.54" cx="2083.82" cy="810.21"/></g><g id="change1_71"><circle r="27.88" cx="2160.6" transform="rotate(-45 2160.602 886.07)" cy="886.08"/></g><g id="change1_72"><circle r="27.22" cx="2227.63" cy="970.68"/></g><g id="change1_73"><circle r="26.56" cx="2283.93" cy="1062.77"/></g><g id="change1_74"><circle r="25.9" cx="2328.76" cy="1160.96"/></g><g id="change1_75"><circle r="25.23" cx="2361.64" transform="rotate(-67.5 2361.643 1263.77)" cy="1263.77"/></g><g id="change1_76"><circle r="24.57" cx="2381.95" transform="rotate(-13.28 2382.42 1369.98)" cy="1369.78"/></g><g id="change1_77"><circle r="23.91" cx="2389.28" transform="rotate(-45 2389.281 1477.477)" cy="1477.47"/></g><g id="change1_78"><circle r="23.25" cx="2383.52" cy="1585.25"/></g><g id="change1_79"><circle r="22.59" cx="2364.79" cy="1691.55"/></g><g id="change1_80"><circle r="21.93" cx="2333.45" transform="rotate(-9.22 2332.753 1794.395)" cy="1794.84"/></g><g id="change1_81"><circle r="21.26" cx="2289.98" transform="rotate(-45 2289.972 1893.642)" cy="1893.64"/></g><g id="change1_82"><circle r="20.6" cx="2235" transform="rotate(-67.5 2235.002 1986.53)" cy="1986.53"/></g><g id="change1_83"><circle r="19.94" cx="2169.28" transform="rotate(-45 2169.28 2072.145)" cy="2072.15"/></g><g id="change1_84"><circle r="19.28" cx="2093.72" transform="rotate(-67.5 2093.713 2149.224)" cy="2149.22"/></g><g id="change1_85"><circle r="18.62" cx="2009.38" transform="rotate(-45 2009.38 2216.587)" cy="2216.59"/></g><g id="change1_86"><circle r="17.95" cx="1917.51" transform="rotate(-45 1917.508 2273.242)" cy="2273.24"/></g><g id="change1_87"><circle r="17.29" cx="1819.5" cy="2318.46"/></g><g id="change1_88"><circle r="16.63" cx="1716.81" cy="2351.73"/></g><g id="change1_89"><path d="M1610.88,2356.48c-8.82,0-15.97,7.15-15.97,15.97s7.15,15.97,15.97,15.97,15.97-7.15,15.97-15.97-7.15-15.97-15.97-15.97Z"/></g><g id="change1_90"><path d="M1503.22,2364.9c-8.45,0-15.31,6.85-15.31,15.31s6.85,15.31,15.31,15.31,15.31-6.85,15.31-15.31-6.85-15.31-15.31-15.31Z"/></g><g id="change1_91"><path d="M1395.42,2360.22c-8.09,0-14.65,6.56-14.65,14.65s6.56,14.65,14.65,14.65,14.65-6.56,14.65-14.65-6.56-14.65-14.65-14.65Z"/></g><g id="change1_92"><circle r="13.98" cx="1289.04" cy="2356.56"/></g><g id="change1_93"><path d="M1185.63,2312.29c-7.36,0-13.32,5.96-13.32,13.32s5.96,13.32,13.32,13.32,13.32-5.96,13.32-13.32-5.96-13.32-13.32-13.32Z"/></g><g id="change1_94"><circle r="12.66" cx="1086.67" cy="2282.53"/></g><g id="change1_95"><path d="M993.57,2215.92c-6.63,0-12,5.37-12,12s5.37,12,12,12,12-5.37,12-12-5.37-12-12-12Z"/></g><g id="change1_96"><path d="M907.69,2151.19c-6.26,0-11.34,5.08-11.34,11.34s5.08,11.34,11.34,11.34,11.34-5.08,11.34-11.34-5.08-11.34-11.34-11.34Z"/></g><g id="change1_97"><circle r="10.67" cx="830.32" cy="2087.27"/></g><g id="change1_98"><circle r="10.01" cx="762.63" cy="2003.19"/></g><g id="change1_99"><path d="M696.26,1911.54c0,5.16,4.19,9.35,9.35,9.35s9.35-4.19,9.35-9.35-4.19-9.35-9.35-9.35-9.35,4.19-9.35,9.35Z"/></g><g id="change1_100"><circle r="8.69" cx="660.02" cy="1813.71"/></g><g id="change1_101"><path d="M626.35,1719.18c4.43,0,8.03-3.59,8.03-8.03s-3.59-8.03-8.03-8.03-8.03,3.59-8.03,8.03,3.59,8.03,8.03,8.03Z"/></g><g id="change1_102"><path d="M605.22,1612.67c4.07,0,7.37-3.3,7.37-7.37s-3.3-7.37-7.37-7.37-7.37,3.3-7.37,7.37,3.3,7.37,7.37,7.37Z"/></g><g id="change1_103"><path d="M597.04,1504.38c3.7,0,6.7-3,6.7-6.7s-3-6.7-6.7-6.7-6.7,3-6.7,6.7,3,6.7,6.7,6.7Z"/></g><g id="change1_104"><path d="M601.96,1395.89c3.34,0,6.04-2.71,6.04-6.04s-2.71-6.04-6.04-6.04-6.04,2.71-6.04,6.04,2.71,6.04,6.04,6.04Z"/></g><g id="change1_105"><path d="M625.23,1283.4c0-2.97-2.41-5.38-5.38-5.38s-5.38,2.41-5.38,5.38,2.41,5.38,5.38,5.38,5.38-2.41,5.38-5.38Z"/></g><g id="change1_106"><circle r="4.72" cx="650.39" cy="1179.88"/></g><g id="change1_107"><path d="M693.09,1076.69c-2.24,0-4.06,1.82-4.06,4.06s1.82,4.06,4.06,4.06,4.06-1.82,4.06-4.06-1.82-4.06-4.06-4.06Z"/></g><g id="change1_108"><path d="M743.95,987.43c0,1.88,1.52,3.4,3.39,3.4s3.4-1.52,3.4-3.4-1.52-3.39-3.4-3.39-3.39,1.52-3.39,3.39Z"/></g><g id="change1_109"><circle r="2.73" cx="812.4" cy="901.3"/></g><g id="change1_110"><path d="M885.28,823.64c0,1.14,.93,2.07,2.07,2.07s2.07-.93,2.07-2.07-.93-2.07-2.07-2.07-2.07,.93-2.07,2.07Z"/></g><g id="change1_111"><circle r="1.41" cx="971.16" cy="755.62"/></g><g id="change1_112"><path d="M1063.33,698.24c0-.41-.33-.75-.75-.75s-.75,.33-.75,.75,.33,.75,.75,.75,.75-.33,.75-.75Z"/></g><g id="change1_113"><circle r="34.5" cx="1154.17" cy="2601.53"/></g><g id="change1_114"><circle r="33.99" cx="1052.93" transform="rotate(-45 1052.932 2564.021)" cy="2564.02"/></g><g id="change1_115"><circle r="33.48" cx="955.57" cy="2517.36"/></g><g id="change1_116"><circle r="32.97" cx="862.97" transform="rotate(-45 862.965 2461.858)" cy="2461.85"/></g><g id="change1_117"><circle r="32.47" cx="775.94" cy="2397.96"/></g><g id="change1_118"><circle r="31.96" cx="695.24" transform="rotate(-45 695.24 2326.242)" cy="2326.24"/></g><g id="change1_119"><circle r="31.45" cx="621.55" transform="rotate(-35.78 621.643 2247.48)" cy="2247.33"/></g><g id="change1_120"><circle r="30.94" cx="555.48" cy="2161.95"/></g><g id="change1_121"><circle r="30.43" cx="497.56" cy="2070.84"/></g><g id="change1_122"><circle r="29.92" cx="448.26" transform="rotate(-58.28 448.318 1974.855)" cy="1974.79"/></g><g id="change1_123"><circle r="29.41" cx="408.01" transform="rotate(-9.22 407.846 1874.1)" cy="1874.61"/></g><g id="change1_124"><circle r="28.9" cx="377.16" transform="rotate(-22.5 377.15 1771.148)" cy="1771.15"/></g><g id="change1_125"><circle r="28.4" cx="356.01" cy="1665.28"/></g><g id="change1_126"><circle r="27.89" cx="344.79" transform="rotate(-22.5 344.78 1557.906)" cy="1557.9"/></g><g id="change1_127"><circle r="27.38" cx="343.62" cy="1449.94"/></g><g id="change1_128"><circle r="26.87" cx="352.52" transform="rotate(-22.5 352.51 1342.345)" cy="1342.35"/></g><g id="change1_129"><circle r="26.36" cx="371.37" transform="rotate(-9.22 371.256 1235.734)" cy="1236.04"/></g><g id="change1_130"><circle r="25.85" cx="399.92" cy="1131.92"/></g><g id="change1_131"><circle r="25.34" cx="437.83" transform="rotate(-9.22 437.666 1030.574)" cy="1030.83"/></g><g id="change1_132"><circle r="24.84" cx="484.89" transform="rotate(-9.22 484.76 933.389)" cy="933.66"/></g><g id="change1_133"><circle r="24.33" cx="540.77" cy="841.28"/></g><g id="change1_134"><circle r="23.82" cx="605.02" transform="rotate(-58.28 605.056 754.533)" cy="754.52"/></g><g id="change1_135"><path d="M653.76,674.12c0,12.87,10.44,23.31,23.31,23.31s23.31-10.44,23.31-23.31-10.44-23.31-23.31-23.31-23.31,10.44-23.31,23.31Z"/></g><g id="change1_136"><circle r="22.8" cx="756.27" transform="rotate(-67.5 756.275 600.75)" cy="600.75"/></g><g id="change1_137"><circle r="22.29" cx="841.92" transform="rotate(-22.5 841.906 535.028)" cy="535.02"/></g><g id="change1_138"><circle r="21.78" cx="933.26" transform="rotate(-22.5 933.264 477.472)" cy="477.46"/></g><g id="change1_139"><circle r="21.27" cx="1029.51" transform="rotate(-22.5 1029.517 428.546)" cy="428.55"/></g><g id="change1_140"><circle r="20.77" cx="1129.85" transform="rotate(-22.5 1129.84 388.713)" cy="388.7"/></g><g id="change1_141"><circle r="20.26" cx="1233.44" transform="rotate(-67.5 1233.433 358.27)" cy="358.27"/></g><g id="change1_142"><circle r="19.75" cx="1339.39" transform="rotate(-9.22 1339.044 337.523)" cy="337.56"/></g><g id="change1_143"><circle r="19.24" cx="1446.81" transform="rotate(-22.5 1446.824 326.779)" cy="326.77"/></g><g id="change1_144"><circle r="18.73" cx="1554.77" transform="rotate(-9.22 1554.36 325.988)" cy="326.05"/></g><g id="change1_145"><circle r="18.22" cx="1662.33" transform="rotate(-22.5 1662.34 335.39)" cy="335.38"/></g><g id="change1_146"><circle r="17.71" cx="1768.56" transform="rotate(-9.22 1768.061 354.579)" cy="354.66"/></g><g id="change1_147"><circle r="17.21" cx="1872.57" transform="rotate(-22.5 1872.56 383.633)" cy="383.62"/></g><g id="change1_148"><circle r="16.7" cx="1973.5" transform="rotate(-67.5 1973.501 421.943)" cy="421.94"/></g><g id="change1_149"><path d="M2070.48,485.58c8.94,0,16.19-7.25,16.19-16.19s-7.25-16.19-16.19-16.19-16.19,7.25-16.19,16.19,7.25,16.19,16.19,16.19Z"/></g><g id="change1_150"><circle r="15.68" cx="2162.63" cy="525.65"/></g><g id="change1_151"><path d="M2249.13,605.42c8.38,0,15.17-6.79,15.17-15.17s-6.79-15.17-15.17-15.17-15.17,6.79-15.17,15.17,6.79,15.17,15.17,15.17Z"/></g><g id="change1_152"><path d="M2329.24,677.29c8.1,0,14.66-6.56,14.66-14.66s-6.56-14.66-14.66-14.66-14.66,6.56-14.66,14.66,6.56,14.66,14.66,14.66Z"/></g><g id="change1_153"><path d="M2402.29,756.28c7.82,0,14.15-6.34,14.15-14.15s-6.34-14.15-14.15-14.15-14.15,6.34-14.15,14.15,6.34,14.15,14.15,14.15Z"/></g><g id="change1_154"><circle r="13.64" cx="2467.67" cy="828.04"/></g><g id="change1_155"><path d="M2524.86,932.75c7.25,0,13.14-5.88,13.14-13.14s-5.88-13.14-13.14-13.14-13.14,5.88-13.14,13.14,5.88,13.14,13.14,13.14Z"/></g><g id="change1_156"><circle r="12.63" cx="2573.38" cy="1016.06"/></g><g id="change1_157"><path d="M2612.82,1104.44c-6.69,0-12.12,5.43-12.12,12.12s5.43,12.12,12.12,12.12,12.12-5.43,12.12-12.12-5.43-12.12-12.12-12.12Z"/></g><g id="change1_158"><circle r="11.61" cx="2642.83" cy="1220.27"/></g><g id="change1_159"><path d="M2663.12,1337.41c6.13,0,11.1-4.97,11.1-11.1s-4.97-11.1-11.1-11.1-11.1,4.97-11.1,11.1,4.97,11.1,11.1,11.1Z"/></g><g id="change1_160"><circle r="10.59" cx="2673.47" cy="1433.77"/></g><g id="change1_161"><path d="M2673.75,1531.65c-5.57,0-10.08,4.51-10.08,10.08s4.51,10.08,10.08,10.08,10.08-4.51,10.08-10.08-4.51-10.08-10.08-10.08Z"/></g><g id="change1_162"><path d="M2663.98,1639.68c-5.29,0-9.58,4.29-9.58,9.58s4.29,9.58,9.58,9.58,9.58-4.29,9.58-9.58-4.29-9.58-9.58-9.58Z"/></g><g id="change1_163"><path d="M2644.27,1746.34c-5.01,0-9.07,4.06-9.07,9.07s4.06,9.07,9.07,9.07,9.07-4.06,9.07-9.07-4.06-9.07-9.07-9.07Z"/></g><g id="change1_164"><circle r="8.56" cx="2614.89" cy="1859.29"/></g><g id="change1_165"><path d="M2576.17,1952.03c-4.45,0-8.05,3.6-8.05,8.05s3.6,8.05,8.05,8.05,8.05-3.6,8.05-8.05-3.6-8.05-8.05-8.05Z"/></g><g id="change1_166"><circle r="7.54" cx="2528.33" cy="2056.86"/></g><g id="change1_167"><path d="M2471.7,2155.81c3.88,0,7.03-3.15,7.03-7.03s-3.15-7.03-7.03-7.03-7.03,3.15-7.03,7.03,3.15,7.03,7.03,7.03Z"/></g><g id="change1_168"><circle r="6.52" cx="2406.74" cy="2235.02"/></g><g id="change1_169"><path d="M2334.04,2308.82c-3.32,0-6.01,2.69-6.01,6.01s2.69,6.01,6.01,6.01,6.01-2.69,6.01-6.01-2.69-6.01-6.01-6.01Z"/></g><g id="change1_170"><circle r="5.51" cx="2254.24" cy="2387.55"/></g><g id="change1_171"><path d="M2173.06,2452.59c0-2.76-2.24-5-5-5s-5,2.24-5,5,2.24,5,5,5,5-2.24,5-5Z"/></g><g id="change1_172"><path d="M2080.75,2509.41c0-2.48-2.01-4.49-4.49-4.49s-4.49,2.01-4.49,4.49,2.01,4.49,4.49,4.49,4.49-2.01,4.49-4.49Z"/></g><g id="change1_173"><path d="M1983.6,2557.54c0-2.2-1.78-3.98-3.98-3.98s-3.98,1.78-3.98,3.98,1.78,3.98,3.98,3.98,3.98-1.78,3.98-3.98Z"/></g><g id="change1_174"><circle r="3.47" cx="1878.97" cy="2596.58"/></g><g id="change1_175"><path d="M1778.1,2626.17c0-1.64-1.33-2.96-2.96-2.96s-2.96,1.33-2.96,2.96,1.33,2.96,2.96,2.96,2.96-1.33,2.96-2.96Z"/></g><g id="change1_176"><circle r="2.45" cx="1669.02" cy="2646.03"/></g><g id="change1_177"><path d="M1563.46,2655.93c0-1.07-.87-1.95-1.95-1.95s-1.95,.87-1.95,1.95,.87,1.95,1.95,1.95,1.95-.87,1.95-1.95Z"/></g><g id="change1_178"><circle r="1.44" cx="1453.55" cy="2655.78"/></g><g id="change1_179"><path d="M1346.07,2644.64c-.51,0-.93,.42-.93,.93s.42,.93,.93,.93,.93-.42,.93-.93-.42-.93-.93-.93Z"/></g><g id="change1_180"><circle r="0.42" cx="1240" cy="2625.43"/></g><g id="change1_181"><circle r="34.5" cx="2452.55" cy="2386.18"/></g><g id="change1_182"><circle r="34.04" cx="2375.11" transform="rotate(-9.22 2374.383 2460.816)" cy="2461.42"/></g><g id="change1_183"><circle r="33.59" cx="2291.73" cy="2530.02"/></g><g id="change1_184"><circle r="33.13" cx="2202.94" cy="2591.45"/></g><g id="change1_185"><circle r="32.68" cx="2109.33" cy="2645.26"/></g><g id="change1_186"><circle r="32.22" cx="2011.55" transform="rotate(-80.78 2011.666 2691.073)" cy="2691.05"/></g><g id="change1_187"><path d="M1910.29,2696.76c-17.54,0-31.76,14.22-31.76,31.77s14.22,31.76,31.76,31.76,31.76-14.22,31.76-31.76-14.22-31.77-31.76-31.77Z"/></g><g id="change1_188"><circle r="31.31" cx="1806.27" cy="2757.45"/></g><g id="change1_189"><circle r="30.85" cx="1700.21" transform="rotate(-67.5 1700.204 2777.661)" cy="2777.66"/></g><g id="change1_190"><circle r="30.4" cx="1592.84" cy="2789.05"/></g><g id="change1_191"><path d="M1484.9,2761.6c-16.54,0-29.94,13.41-29.94,29.94s13.41,29.94,29.94,29.94,29.94-13.41,29.94-29.94-13.41-29.94-29.94-29.94Z"/></g><g id="change1_192"><path d="M1377.12,2755.64c-16.28,0-29.49,13.2-29.49,29.49s13.2,29.48,29.49,29.48,29.49-13.2,29.49-29.48-13.2-29.49-29.49-29.49Z"/></g><g id="change1_193"><circle r="29.03" cx="1270.24" cy="2769.83"/></g><g id="change1_194"><path d="M1164.99,2717.16c-15.78,0-28.57,12.79-28.57,28.57s12.79,28.57,28.57,28.57,28.57-12.79,28.57-28.57-12.79-28.57-28.57-28.57Z"/></g><g id="change1_195"><circle r="28.12" cx="1062.11" transform="rotate(-9.22 1061.742 2712.281)" cy="2712.97"/></g><g id="change1_196"><circle r="27.66" cx="962.33" transform="rotate(-9.22 962.025 2671.037)" cy="2671.74"/></g><g id="change1_197"><circle r="27.21" cx="866.34" cy="2622.31"/></g><g id="change1_198"><circle r="26.75" cx="774.81" transform="rotate(-67.5 774.81 2565.035)" cy="2565.04"/></g><g id="change1_199"><circle r="26.29" cx="688.36" transform="rotate(-67.5 688.359 2500.353)" cy="2500.36"/></g><g id="change1_200"><circle r="25.84" cx="607.52" transform="rotate(-67.5 607.518 2428.78)" cy="2428.78"/></g><g id="change1_201"><circle r="25.38" cx="532.79" transform="rotate(-67.5 532.794 2350.84)" cy="2350.84"/></g><g id="change1_202"><circle r="24.93" cx="464.75" transform="rotate(-67.5 464.744 2267.01)" cy="2267.01"/></g><g id="change1_203"><circle r="24.47" cx="403.92" cy="2177.81"/></g><g id="change1_204"><circle r="24.01" cx="350.75" cy="2083.83"/></g><g id="change1_205"><circle r="23.56" cx="305.62" transform="rotate(-22.5 305.615 1985.75)" cy="1985.74"/></g><g id="change1_206"><circle r="23.1" cx="268.82" cy="1884.24"/></g><g id="change1_207"><circle r="22.65" cx="240.59" transform="rotate(-31.72 240.532 1779.887)" cy="1780.02"/></g><g id="change1_208"><circle r="22.19" cx="221.09" transform="rotate(-58.28 221.13 1673.89)" cy="1673.83"/></g><g id="change1_209"><circle r="21.74" cx="210.42" cy="1566.39"/></g><g id="change1_210"><circle r="21.28" cx="208.64" transform="rotate(-9.22 208.536 1458.032)" cy="1458.43"/></g><g id="change1_211"><circle r="20.82" cx="215.78" cy="1350.7"/></g><g id="change1_212"><circle r="20.37" cx="231.79" transform="rotate(-9.22 231.695 1243.58)" cy="1243.92"/></g><g id="change1_213"><circle r="19.91" cx="256.59" cy="1138.84"/></g><g id="change1_214"><circle r="19.46" cx="290.04" cy="1036.19"/></g><g id="change1_215"><circle r="19" cx="331.95" cy="936.68"/></g><g id="change1_216"><circle r="18.54" cx="382.03" cy="841.02"/></g><g id="change1_217"><circle r="18.09" cx="439.91" cy="749.88"/></g><g id="change1_218"><circle r="17.63" cx="505.17" transform="rotate(-9.22 505.006 663.717)" cy="663.87"/></g><g id="change1_219"><circle r="17.18" cx="577.28" cy="583.5"/></g><g id="change1_220"><circle r="16.72" cx="655.71" cy="509.29"/></g><g id="change1_221"><path d="M739.99,458.08c8.98,0,16.26-7.28,16.26-16.26s-7.28-16.26-16.26-16.26-16.26,7.28-16.26,16.26,7.28,16.26,16.26,16.26Z"/></g><g id="change1_222"><circle r="15.81" cx="829.6" cy="381.58"/></g><g id="change1_223"><path d="M923.94,344.4c8.48,0,15.35-6.87,15.35-15.35s-6.87-15.35-15.35-15.35-15.35,6.87-15.35,15.35,6.87,15.35,15.35,15.35Z"/></g><g id="change1_224"><path d="M1022.32,299.48c8.23,0,14.9-6.67,14.9-14.9s-6.67-14.9-14.9-14.9-14.9,6.67-14.9,14.9,6.67,14.9,14.9,14.9Z"/></g><g id="change1_225"><path d="M1124.08,262.91c7.98,0,14.44-6.47,14.44-14.44s-6.47-14.44-14.44-14.44-14.44,6.47-14.44,14.44,6.47,14.44,14.44,14.44Z"/></g><g id="change1_226"><path d="M1228.48,234.92c7.72,0,13.99-6.26,13.99-13.99s-6.26-13.98-13.99-13.98-13.98,6.26-13.98,13.98,6.26,13.99,13.98,13.99Z"/></g><g id="change1_227"><circle r="13.53" cx="1334.8" cy="202.14"/></g><g id="change1_228"><circle r="13.07" cx="1442.31" cy="192.19"/></g><g id="change1_229"><circle r="12.62" cx="1550.28" cy="191.13"/></g><g id="change1_230"><path d="M1657.96,211.15c6.72,0,12.16-5.44,12.16-12.16s-5.44-12.16-12.16-12.16-12.16,5.44-12.16,12.16,5.45,12.16,12.16,12.16Z"/></g><g id="change1_231"><path d="M1764.63,227.41c6.46,0,11.71-5.24,11.71-11.71s-5.24-11.71-11.71-11.71-11.71,5.24-11.71,11.71,5.24,11.71,11.71,11.71Z"/></g><g id="change1_232"><circle r="11.25" cx="1869.54" cy="241.21"/></g><g id="change1_233"><path d="M1971.97,286.15c5.96,0,10.79-4.83,10.79-10.79s-4.83-10.79-10.79-10.79-10.79,4.83-10.79,10.79,4.83,10.79,10.79,10.79Z"/></g><g id="change1_234"><circle r="10.34" cx="2071.19" cy="317.94"/></g><g id="change1_235"><path d="M2166.5,378.54c5.46,0,9.88-4.42,9.88-9.88s-4.42-9.88-9.88-9.88-9.88,4.42-9.88,9.88,4.42,9.88,9.88,9.88Z"/></g><g id="change1_236"><path d="M2257.25,436.58c5.21,0,9.43-4.22,9.43-9.43s-4.22-9.43-9.43-9.43-9.43,4.22-9.43,9.43,4.22,9.43,9.43,9.43Z"/></g><g id="change1_237"><path d="M2342.83,501.95c4.95,0,8.97-4.02,8.97-8.97s-4.02-8.97-8.97-8.97-8.97,4.02-8.97,8.97,4.02,8.97,8.97,8.97Z"/></g><g id="change1_238"><circle r="8.51" cx="2422.72" cy="565.62"/></g><g id="change1_239"><path d="M2496.4,652.6c4.45,0,8.06-3.61,8.06-8.06s-3.61-8.06-8.06-8.06-8.06,3.61-8.06,8.06,3.61,8.06,8.06,8.06Z"/></g><g id="change1_240"><circle r="7.6" cx="2563.32" cy="729.28"/></g><g id="change1_241"><circle r="7.15" cx="2622.94" cy="819.29"/></g><g id="change1_242"><path d="M2674.84,920.66c3.69,0,6.69-3,6.69-6.69s-3-6.69-6.69-6.69-6.69,3-6.69,6.69,3,6.69,6.69,6.69Z"/></g><g id="change1_243"><path d="M2718.64,1006.42c-3.44,0-6.23,2.79-6.23,6.23s2.79,6.23,6.23,6.23,6.24-2.79,6.24-6.23-2.79-6.23-6.24-6.23Z"/></g><g id="change1_244"><path d="M2754.07,1108.87c-3.19,0-5.78,2.59-5.78,5.78s2.59,5.78,5.78,5.78,5.78-2.59,5.78-5.78-2.59-5.78-5.78-5.78Z"/></g><g id="change1_245"><path d="M2780.9,1213.91c-2.94,0-5.32,2.38-5.32,5.32s2.38,5.32,5.32,5.32,5.32-2.38,5.32-5.32-2.38-5.32-5.32-5.32Z"/></g><g id="change1_246"><circle r="4.87" cx="2798.99" cy="1325.68"/></g><g id="change1_247"><path d="M2808.22,1437.67c2.44,0,4.41-1.98,4.41-4.41s-1.98-4.41-4.41-4.41-4.41,1.98-4.41,4.41,1.98,4.41,4.41,4.41Z"/></g><g id="change1_248"><path d="M2808.56,1537.27c-2.18,0-3.96,1.77-3.96,3.96s1.77,3.96,3.96,3.96,3.96-1.77,3.96-3.96-1.77-3.96-3.96-3.96Z"/></g><g id="change1_249"><circle r="3.5" cx="2799.99" cy="1648.85"/></g><g id="change1_250"><path d="M2782.56,1752.36c-1.68,0-3.04,1.36-3.04,3.04s1.36,3.04,3.04,3.04,3.04-1.36,3.04-3.04-1.36-3.04-3.04-3.04Z"/></g><g id="change1_251"><path d="M2756.35,1857.56c-1.43,0-2.59,1.16-2.59,2.59s1.16,2.59,2.59,2.59,2.59-1.16,2.59-2.59-1.16-2.59-2.59-2.59Z"/></g><g id="change1_252"><path d="M2721.52,1960.21c-1.18,0-2.13,.95-2.13,2.13s.95,2.13,2.13,2.13,2.13-.95,2.13-2.13-.95-2.13-2.13-2.13Z"/></g><g id="change1_253"><path d="M2678.27,2059.6c-.93,0-1.68,.75-1.68,1.68s.75,1.68,1.68,1.68,1.68-.75,1.68-1.68-.75-1.68-1.68-1.68Z"/></g><g id="change1_254"><circle r="1.22" cx="2626.91" cy="2156.24"/></g><g id="change1_255"><path d="M2567.8,2245.83c-.42,0-.76,.34-.76,.76s.34,.76,.76,.76,.76-.34,.76-.76-.34-.76-.76-.76Z"/></g><g id="change1_256"><circle r="0.31" cx="2501.4" cy="2331.74"/></g></svg>