<?xml version="1.0" encoding="UTF-8" standalone="no"?><svg xmlns="http://www.w3.org/2000/svg" xmlns:xlink="http://www.w3.org/1999/xlink" contentScriptType="text/ecmascript" fill="#000000" width="493.2" zoomAndPan="magnify" contentStyleType="text/css" viewBox="0.0 0.0 493.2 493.1" height="493.1" preserveAspectRatio="xMidYMid meet" version="1"><g id="change1_1"><path fill="#eeefef" d="M147,472.2c-2.7-1.2-5.3-2.4-8-3.7L24.6,354.1c-1.3-2.6-2.5-5.3-3.7-8L147,472.2z"/></g><g id="change1_2"><path fill="#eeefef" d="M177.3,483.3c-2.1-0.6-4.1-1.2-6.2-1.9L11.7,322c-0.7-2-1.3-4.1-1.9-6.2L177.3,483.3z"/></g><g id="change1_3"><path fill="#eeefef" d="M202.5,489.2c-1.8-0.3-3.5-0.7-5.3-1L5,295.9c-0.4-1.8-0.7-3.5-1-5.3L202.5,489.2z"/></g><g id="change1_4"><path fill="#eeefef" d="M224.8,492.2c-1.6-0.1-3.2-0.3-4.7-0.5L1.4,273.1c-0.2-1.6-0.3-3.2-0.5-4.7L224.8,492.2z"/></g><g id="change1_5"><path fill="#eeefef" d="M245,493.1c-1.4,0-2.9,0-4.3-0.1L0.1,252.5c0-1.4,0-2.9-0.1-4.3L245,493.1z"/></g><g id="change1_6"><path fill="#eeefef" d="M263.6,492.6c-1.3,0.1-2.7,0.2-4,0.2L0.3,233.5c0.1-1.3,0.1-2.7,0.2-4L263.6,492.6z"/></g><g id="change1_7"><path fill="#eeefef" d="M281.1,490.7c-1.3,0.2-2.5,0.3-3.8,0.5L1.9,215.8c0.2-1.3,0.3-2.5,0.5-3.8L281.1,490.7z"/></g><g id="change1_8"><path fill="#eeefef" d="M297.4,487.9c-1.2,0.3-2.4,0.5-3.5,0.7L4.5,199.2c0.2-1.2,0.5-2.4,0.7-3.6L297.4,487.9z"/></g><g id="change1_9"><path fill="#eeefef" d="M312.9,484.1c-1.1,0.3-2.2,0.6-3.4,0.9C209.1,384.5,108.6,284,8.1,183.6c0.3-1.1,0.6-2.2,0.9-3.4 C110.3,281.5,211.6,382.8,312.9,484.1"/></g><g id="change1_10"><path fill="#eeefef" d="M327.6,479.5c-1.1,0.4-2.1,0.7-3.2,1.1c-104-104-207.9-207.9-311.9-311.9c0.4-1.1,0.7-2.1,1.1-3.2 C118.3,270.2,222.9,374.8,327.6,479.5"/></g><g id="change1_11"><path fill="#eeefef" d="M341.5,474.2c-1,0.4-2,0.8-3,1.2C231.6,368.5,124.6,261.6,17.7,154.6c0.4-1,0.8-2,1.2-3 C126.5,259.1,234,366.6,341.5,474.2"/></g><g id="change1_12"><path fill="#eeefef" d="M354.8,468.2c-1,0.5-1.9,0.9-2.9,1.4C242.5,360.1,133,250.7,23.6,141.2c0.5-1,0.9-1.9,1.4-2.9 C134.9,248.3,244.8,358.2,354.8,468.2"/></g><g id="change1_13"><path fill="#eeefef" d="M367.4,461.6c-0.9,0.5-1.8,1-2.8,1.5C253.1,351.5,141.6,240,30.1,128.5c0.5-0.9,1-1.8,1.5-2.8 C143.5,237.7,255.5,349.6,367.4,461.6"/></g><g id="change1_14"><path fill="#eeefef" d="M379.4,454.3c-0.9,0.6-1.7,1.1-2.6,1.7C263.6,342.8,150.4,229.5,37.1,116.3c0.5-0.9,1.1-1.7,1.7-2.6 C152.4,227.2,265.9,340.8,379.4,454.3"/></g><g id="change1_15"><path fill="#eeefef" d="M390.9,446.5c-0.8,0.6-1.7,1.2-2.5,1.8c-114.5-114.5-229-229.1-343.6-343.6c0.6-0.8,1.2-1.7,1.8-2.5 C161.4,217,276.1,331.8,390.9,446.5"/></g><g id="change1_16"><path fill="#eeefef" d="M401.8,438.2c-0.8,0.6-1.6,1.3-2.4,1.9L53.1,93.7c0.6-0.8,1.3-1.6,1.9-2.4L401.8,438.2z"/></g><g id="change1_17"><path fill="#eeefef" d="M412.2,429.3c-0.7,0.7-1.5,1.3-2.3,2c-116-116-232-232-348.1-348.1c0.7-0.8,1.3-1.5,2-2.3 C180,197.1,296.1,313.2,412.2,429.3"/></g><g id="change1_18"><path fill="#eeefef" d="M422,419.8c-0.4,0.4-0.7,0.7-1.1,1.1c-0.4,0.4-0.7,0.7-1.1,1.1L71.1,73.3c0.4-0.4,0.7-0.7,1.1-1.1 c0.4-0.4,0.7-0.7,1.1-1.1L422,419.8z"/></g><g id="change1_19"><path fill="#eeefef" d="M431.3,409.9c-0.7,0.8-1.3,1.5-2,2.3C313.2,296.1,197.1,180,81,63.9c0.7-0.7,1.5-1.3,2.3-2 C199.3,177.9,315.3,293.9,431.3,409.9"/></g><g id="change1_20"><path fill="#eeefef" d="M440.1,399.4c-0.6,0.8-1.3,1.6-1.9,2.4L91.3,55c0.8-0.6,1.6-1.3,2.4-1.9L440.1,399.4z"/></g><g id="change1_21"><path fill="#eeefef" d="M448.3,388.4c-0.6,0.8-1.2,1.7-1.8,2.5C331.8,276.1,217,161.4,102.2,46.6c0.8-0.6,1.7-1.2,2.5-1.8 C219.3,159.3,333.8,273.9,448.3,388.4"/></g><g id="change1_22"><path fill="#eeefef" d="M456,376.8c-0.5,0.9-1.1,1.7-1.7,2.6L113.7,38.8c0.9-0.6,1.7-1.1,2.6-1.7L456,376.8z"/></g><g id="change1_23"><path fill="#eeefef" d="M463.1,364.7c-0.5,0.9-1,1.8-1.5,2.8c-112-112-223.9-223.9-335.9-335.9c0.9-0.5,1.8-1,2.8-1.5 C240,141.6,351.5,253.1,463.1,364.7"/></g><g id="change1_24"><path fill="#eeefef" d="M469.6,351.9c-0.5,1-0.9,1.9-1.4,2.9c-110-110-219.9-219.9-329.9-329.9c1-0.5,1.9-0.9,2.9-1.4 C250.7,133,360.1,242.5,469.6,351.9"/></g><g id="change1_25"><path fill="#eeefef" d="M475.4,338.5c-0.4,1-0.8,2-1.3,3C366.7,234,259.1,126.5,151.6,19c1-0.4,2-0.8,3-1.2 C261.6,124.6,368.5,231.6,475.4,338.5"/></g><g id="change1_26"><path fill="#eeefef" d="M480.6,324.4c-0.4,1.1-0.7,2.1-1.1,3.2c-104.7-104.7-209.3-209.3-314-314c1.1-0.4,2.1-0.7,3.2-1.1 C272.7,116.5,376.6,220.5,480.6,324.4"/></g><g id="change1_27"><path fill="#eeefef" d="M485,309.6c-0.3,1.1-0.6,2.2-0.9,3.4C382.8,211.6,281.5,110.3,180.2,9c1.1-0.3,2.2-0.6,3.4-0.9 C284,108.6,384.5,209.1,485,309.6"/></g><g id="change1_28"><path fill="#eeefef" d="M488.6,293.9c-0.2,1.2-0.5,2.4-0.7,3.6L195.7,5.3c1.2-0.2,2.4-0.5,3.5-0.7L488.6,293.9z"/></g><g id="change1_29"><path fill="#eeefef" d="M491.2,277.3c-0.2,1.3-0.3,2.5-0.5,3.8L212.1,2.4c1.3-0.2,2.5-0.3,3.8-0.5L491.2,277.3z"/></g><g id="change1_30"><path fill="#eeefef" d="M492.8,259.6c-0.1,1.3-0.1,2.7-0.2,4L229.5,0.6c1.3-0.1,2.7-0.2,4-0.2L492.8,259.6z"/></g><g id="change1_31"><path fill="#eeefef" d="M493.1,240.6c0,1.4,0,2.9,0.1,4.3L248.2,0c1.4,0,2.9,0,4.3,0.1L493.1,240.6z"/></g><g id="change1_32"><path fill="#eeefef" d="M491.7,220c0.2,1.6,0.3,3.2,0.5,4.7L268.4,1c1.6,0.1,3.2,0.3,4.8,0.5L491.7,220z"/></g><g id="change1_33"><path fill="#eeefef" d="M488.2,197.2c0.4,1.8,0.7,3.5,1,5.3L290.6,3.9c1.8,0.3,3.5,0.7,5.3,1L488.2,197.2z"/></g><g id="change1_34"><path fill="#eeefef" d="M481.4,171.2c0.7,2,1.3,4.1,1.9,6.2L315.8,9.9c2.1,0.6,4.1,1.2,6.2,1.9L481.4,171.2z"/></g><g id="change1_35"><path fill="#eeefef" d="M468.5,139.1c1.3,2.6,2.5,5.3,3.7,8L346.1,20.9c2.7,1.2,5.3,2.4,8,3.7L468.5,139.1z"/></g><g id="change1_36"><path fill="#eeefef" d="M446.1,101.7L391.4,47c10.3,7.5,20.2,15.9,29.5,25.2C430.2,81.5,438.6,91.4,446.1,101.7"/></g><g id="change1_37"><path fill="#eeefef" d="M101.7,446.1c-10.3-7.5-20.2-15.9-29.5-25.2c-9.3-9.3-17.7-19.2-25.2-29.5L101.7,446.1z"/></g></svg>