<?xml version="1.0" encoding="UTF-8" standalone="no"?><svg xmlns="http://www.w3.org/2000/svg" xmlns:xlink="http://www.w3.org/1999/xlink" contentScriptType="text/ecmascript" fill="#ffffff" width="384.3" zoomAndPan="magnify" contentStyleType="text/css" viewBox="0.0 0.0 384.3 64.4" height="64.4" preserveAspectRatio="xMidYMid meet" version="1"><g id="change1_1"><path fill="inherit" d="M32.2032,64.4054C14.4465,64.4054,0,49.9589,0,32.2032C0,14.4465,14.4465,0,32.2032,0s32.2022,14.4465,32.2022,32.2032 C64.4054,49.9589,49.9598,64.4054,32.2032,64.4054z M32.2032,11.9316c-11.1781,0-20.2715,9.0934-20.2715,20.2715 s9.0934,20.2706,20.2715,20.2706c11.1772,0,20.2706-9.0924,20.2706-20.2706S43.3804,11.9316,32.2032,11.9316z M138.8257,64.4054 c-17.7567,0-32.2022-14.4465-32.2022-32.2022C106.6235,14.4465,121.069,0,138.8257,0s32.2032,14.4465,32.2032,32.2032 C171.0289,49.9589,156.5823,64.4054,138.8257,64.4054z M138.8257,11.9316c-11.1772,0-20.2706,9.0934-20.2706,20.2715 s9.0934,20.2706,20.2706,20.2706c11.1781,0,20.2715-9.0924,20.2715-20.2706S150.0038,11.9316,138.8257,11.9316z M245.4491,64.4054 c-17.7567,0-32.2022-14.4465-32.2022-32.2022C213.2469,14.4465,227.6925,0,245.4491,0c17.7566,0,32.2022,14.4465,32.2022,32.2032 C277.6513,49.9589,263.2058,64.4054,245.4491,64.4054z M245.4491,11.9316c-11.1772,0-20.2706,9.0934-20.2706,20.2715 s9.0934,20.2706,20.2706,20.2706s20.2706-9.0924,20.2706-20.2706S256.6263,11.9316,245.4491,11.9316z M352.0726,64.4054 c-17.7557,0-32.2022-14.4465-32.2022-32.2022C319.8704,14.4465,334.3169,0,352.0726,0c17.7557,0,32.2022,14.4465,32.2022,32.2032 C384.2748,49.9589,369.8283,64.4054,352.0726,64.4054z M352.0726,11.9316c-11.1781,0-20.2706,9.0934-20.2706,20.2715 s9.0924,20.2706,20.2706,20.2706s20.2706-9.0924,20.2706-20.2706S363.2507,11.9316,352.0726,11.9316z"/></g></svg>