<?xml version="1.0" encoding="UTF-8" standalone="no"?><svg xmlns="http://www.w3.org/2000/svg" xmlns:xlink="http://www.w3.org/1999/xlink" contentScriptType="text/ecmascript" fill="#ffffff" width="2909.4" zoomAndPan="magnify" contentStyleType="text/css" viewBox="90.6 1301.6 2909.4 396.9" height="396.9" data-name="Layer 1" preserveAspectRatio="xMidYMid meet" version="1"><g id="change1_1"><circle r="3.14" cx="93.72" cy="1322.57"/><circle r="5.78" cx="187.45" cy="1322.57"/><path d="M281.17,1330.71c-4.49,0-8.14-3.64-8.14-8.14s3.64-8.14,8.14-8.14,8.14,3.64,8.14,8.14-3.64,8.14-8.14,8.14Z"/><path d="M374.89,1332.79c-5.64,0-10.22-4.57-10.22-10.22s4.57-10.22,10.22-10.22,10.22,4.57,10.22,10.22-4.57,10.22-10.22,10.22Z"/><circle r="12.06" cx="468.61" cy="1322.57"/><path d="M562.34,1336.27c-7.57,0-13.7-6.13-13.7-13.7s6.13-13.7,13.7-13.7,13.7,6.13,13.7,13.7-6.13,13.7-13.7,13.7Z"/><path d="M656.06,1337.72c-8.36,0-15.15-6.78-15.15-15.15s6.78-15.15,15.15-15.15,15.15,6.78,15.15,15.15-6.78,15.15-15.15,15.15Z"/><path d="M749.78,1338.98c-9.06,0-16.41-7.35-16.41-16.41s7.35-16.41,16.41-16.41,16.41,7.35,16.41,16.41-7.34,16.41-16.41,16.41Z"/><path d="M843.51,1340.08c-9.67,0-17.5-7.84-17.5-17.5s7.84-17.5,17.5-17.5,17.5,7.84,17.5,17.5-7.84,17.5-17.5,17.5Z"/><path d="M937.23,1341.02c-10.19,0-18.45-8.26-18.45-18.45s8.26-18.45,18.45-18.45,18.45,8.26,18.45,18.45-8.26,18.45-18.45,18.45Z"/><path d="M1030.95,1341.79c-10.61,0-19.22-8.6-19.22-19.22s8.6-19.22,19.22-19.22,19.22,8.6,19.22,19.22-8.6,19.22-19.22,19.22Z"/><path d="M1124.68,1342.42c-10.96,0-19.85-8.89-19.85-19.85s8.89-19.85,19.85-19.85,19.85,8.89,19.85,19.85-8.89,19.85-19.85,19.85Z"/><path d="M1218.4,1342.91c-11.23,0-20.34-9.1-20.34-20.34s9.11-20.34,20.34-20.34,20.34,9.11,20.34,20.34-9.1,20.34-20.34,20.34Z"/><path d="M1312.12,1343.26c-11.43,0-20.69-9.26-20.69-20.69s9.26-20.69,20.69-20.69,20.69,9.26,20.69,20.69-9.26,20.69-20.69,20.69Z"/><circle r="20.91" cx="1405.84" cy="1322.57"/><path d="M1499.57,1343.57c-11.6,0-21-9.4-21-21s9.4-21,21-21,21,9.4,21,21-9.4,21-21,21Z"/><path d="M1593.29,1343.53c-11.57,0-20.96-9.38-20.96-20.96s9.38-20.96,20.96-20.96,20.96,9.38,20.96,20.96-9.38,20.96-20.96,20.96Z"/><circle r="20.79" cx="1687.01" cy="1322.57"/><circle r="20.48" cx="1780.74" cy="1322.57"/><path d="M1874.46,1342.6c-11.06,0-20.03-8.97-20.03-20.03s8.97-20.03,20.03-20.03,20.03,8.97,20.03,20.03-8.97,20.03-20.03,20.03Z"/><circle r="19.44" cx="1968.18" cy="1322.57"/><circle r="18.7" cx="2061.91" cy="1322.57"/><path d="M2155.63,1340.39c-9.84,0-17.81-7.98-17.81-17.81s7.98-17.81,17.81-17.81,17.81,7.98,17.81,17.81-7.98,17.81-17.81,17.81Z"/><path d="M2249.35,1339.33c-9.26,0-16.76-7.5-16.76-16.76s7.5-16.76,16.76-16.76,16.76,7.5,16.76,16.76-7.5,16.76-16.76,16.76Z"/><circle r="15.54" cx="2343.07" cy="1322.57"/><circle r="14.14" cx="2436.8" cy="1322.57"/><path d="M2530.52,1335.12c-6.93,0-12.55-5.62-12.55-12.55s5.62-12.55,12.55-12.55,12.55,5.62,12.55,12.55-5.62,12.55-12.55,12.55Z"/><path d="M2624.24,1333.32c-5.94,0-10.75-4.81-10.75-10.75s4.81-10.75,10.75-10.75,10.75,4.81,10.75,10.75-4.81,10.75-10.75,10.75Z"/><path d="M2717.97,1331.3c-4.82,0-8.73-3.91-8.73-8.73s3.91-8.73,8.73-8.73,8.73,3.91,8.73,8.73-3.91,8.73-8.73,8.73Z"/><path d="M2811.69,1329.02c-3.56,0-6.45-2.89-6.45-6.45s2.89-6.45,6.45-6.45,6.45,2.89,6.45,6.45-2.89,6.45-6.45,6.45Z"/><circle r="3.85" cx="2905.41" cy="1322.57"/><path d="M2999.14,1323.44c-.48,0-.86-.39-.86-.86s.39-.86,.86-.86,.86,.39,.86,.86-.39,.86-.86,.86Z"/></g><g id="change1_3"><circle r="3.14" cx="93.72" cy="1440.86"/><circle r="5.78" cx="187.45" cy="1440.86"/><path d="M281.17,1449c-4.49,0-8.14-3.64-8.14-8.14s3.64-8.14,8.14-8.14,8.14,3.64,8.14,8.14-3.64,8.14-8.14,8.14Z"/><path d="M374.89,1451.07c-5.64,0-10.22-4.57-10.22-10.22s4.57-10.22,10.22-10.22,10.22,4.57,10.22,10.22-4.57,10.22-10.22,10.22Z"/><circle r="12.06" cx="468.61" cy="1440.86"/><path d="M562.34,1454.55c-7.57,0-13.7-6.13-13.7-13.7s6.13-13.7,13.7-13.7,13.7,6.13,13.7,13.7-6.13,13.7-13.7,13.7Z"/><path d="M656.06,1456c-8.36,0-15.15-6.78-15.15-15.15s6.78-15.15,15.15-15.15,15.15,6.78,15.15,15.15-6.78,15.15-15.15,15.15Z"/><path d="M749.78,1457.26c-9.06,0-16.41-7.35-16.41-16.41s7.35-16.41,16.41-16.41,16.41,7.35,16.41,16.41-7.34,16.41-16.41,16.41Z"/><path d="M843.51,1458.36c-9.67,0-17.5-7.84-17.5-17.5s7.84-17.5,17.5-17.5,17.5,7.84,17.5,17.5-7.84,17.5-17.5,17.5Z"/><path d="M937.23,1459.3c-10.19,0-18.45-8.26-18.45-18.45s8.26-18.45,18.45-18.45,18.45,8.26,18.45,18.45-8.26,18.45-18.45,18.45Z"/><path d="M1030.95,1460.08c-10.61,0-19.22-8.6-19.22-19.22s8.6-19.22,19.22-19.22,19.22,8.6,19.22,19.22-8.6,19.22-19.22,19.22Z"/><path d="M1124.68,1460.7c-10.96,0-19.85-8.89-19.85-19.85s8.89-19.85,19.85-19.85,19.85,8.89,19.85,19.85-8.89,19.85-19.85,19.85Z"/><path d="M1218.4,1461.19c-11.23,0-20.34-9.1-20.34-20.34s9.11-20.34,20.34-20.34,20.34,9.11,20.34,20.34-9.1,20.34-20.34,20.34Z"/><path d="M1312.12,1461.55c-11.43,0-20.69-9.26-20.69-20.69s9.26-20.69,20.69-20.69,20.69,9.26,20.69,20.69-9.26,20.69-20.69,20.69Z"/><circle r="20.91" cx="1405.84" cy="1440.86"/><path d="M1499.57,1461.85c-11.6,0-21-9.4-21-21s9.4-21,21-21,21,9.4,21,21-9.4,21-21,21Z"/><path d="M1593.29,1461.81c-11.57,0-20.96-9.38-20.96-20.96s9.38-20.96,20.96-20.96,20.96,9.38,20.96,20.96-9.38,20.96-20.96,20.96Z"/><circle r="20.79" cx="1687.01" cy="1440.86"/><circle r="20.48" cx="1780.74" cy="1440.86"/><path d="M1874.46,1460.89c-11.06,0-20.03-8.97-20.03-20.03s8.97-20.03,20.03-20.03,20.03,8.97,20.03,20.03-8.97,20.03-20.03,20.03Z"/><circle r="19.44" cx="1968.18" cy="1440.86"/><circle r="18.7" cx="2061.91" cy="1440.86"/><path d="M2155.63,1458.67c-9.84,0-17.81-7.98-17.81-17.81s7.98-17.81,17.81-17.81,17.81,7.98,17.81,17.81-7.98,17.81-17.81,17.81Z"/><path d="M2249.35,1457.62c-9.26,0-16.76-7.5-16.76-16.76s7.5-16.76,16.76-16.76,16.76,7.5,16.76,16.76-7.5,16.76-16.76,16.76Z"/><circle r="15.54" cx="2343.07" cy="1440.86"/><circle r="14.14" cx="2436.8" cy="1440.86"/><path d="M2530.52,1453.41c-6.93,0-12.55-5.62-12.55-12.55s5.62-12.55,12.55-12.55,12.55,5.62,12.55,12.55-5.62,12.55-12.55,12.55Z"/><path d="M2624.24,1451.61c-5.94,0-10.75-4.81-10.75-10.75s4.81-10.75,10.75-10.75,10.75,4.81,10.75,10.75-4.81,10.75-10.75,10.75Z"/><path d="M2717.97,1449.59c-4.82,0-8.73-3.91-8.73-8.73s3.91-8.73,8.73-8.73,8.73,3.91,8.73,8.73-3.91,8.73-8.73,8.73Z"/><path d="M2811.69,1447.3c-3.56,0-6.45-2.89-6.45-6.45s2.89-6.45,6.45-6.45,6.45,2.89,6.45,6.45-2.89,6.45-6.45,6.45Z"/><circle r="3.85" cx="2905.41" cy="1440.86"/><path d="M2999.14,1441.72c-.48,0-.86-.39-.86-.86s.39-.86,.86-.86,.86,.39,.86,.86-.39,.86-.86,.86Z"/></g><g id="change1_2"><circle r="3.14" cx="93.72" cy="1559.14"/><circle r="5.78" cx="187.45" cy="1559.14"/><path d="M281.17,1567.28c-4.49,0-8.14-3.64-8.14-8.14s3.64-8.14,8.14-8.14,8.14,3.64,8.14,8.14-3.64,8.14-8.14,8.14Z"/><path d="M374.89,1569.36c-5.64,0-10.22-4.57-10.22-10.22s4.57-10.22,10.22-10.22,10.22,4.57,10.22,10.22-4.57,10.22-10.22,10.22Z"/><circle r="12.06" cx="468.61" cy="1559.14"/><path d="M562.34,1572.84c-7.57,0-13.7-6.13-13.7-13.7s6.13-13.7,13.7-13.7,13.7,6.13,13.7,13.7-6.13,13.7-13.7,13.7Z"/><path d="M656.06,1574.29c-8.36,0-15.15-6.78-15.15-15.15s6.78-15.15,15.15-15.15,15.15,6.78,15.15,15.15-6.78,15.15-15.15,15.15Z"/><path d="M749.78,1575.55c-9.06,0-16.41-7.35-16.41-16.41s7.35-16.41,16.41-16.41,16.41,7.35,16.41,16.41-7.34,16.41-16.41,16.41Z"/><path d="M843.51,1576.65c-9.67,0-17.5-7.84-17.5-17.5s7.84-17.5,17.5-17.5,17.5,7.84,17.5,17.5-7.84,17.5-17.5,17.5Z"/><path d="M937.23,1577.59c-10.19,0-18.45-8.26-18.45-18.45s8.26-18.45,18.45-18.45,18.45,8.26,18.45,18.45-8.26,18.45-18.45,18.45Z"/><path d="M1030.95,1578.36c-10.61,0-19.22-8.6-19.22-19.22s8.6-19.22,19.22-19.22,19.22,8.6,19.22,19.22-8.6,19.22-19.22,19.22Z"/><path d="M1124.68,1578.99c-10.96,0-19.85-8.89-19.85-19.85s8.89-19.85,19.85-19.85,19.85,8.89,19.85,19.85-8.89,19.85-19.85,19.85Z"/><path d="M1218.4,1579.48c-11.23,0-20.34-9.1-20.34-20.34s9.11-20.34,20.34-20.34,20.34,9.11,20.34,20.34-9.1,20.34-20.34,20.34Z"/><path d="M1312.12,1579.83c-11.43,0-20.69-9.26-20.69-20.69s9.26-20.69,20.69-20.69,20.69,9.26,20.69,20.69-9.26,20.69-20.69,20.69Z"/><circle r="20.91" cx="1405.84" cy="1559.14"/><path d="M1499.57,1580.14c-11.6,0-21-9.4-21-21s9.4-21,21-21,21,9.4,21,21-9.4,21-21,21Z"/><path d="M1593.29,1580.1c-11.57,0-20.96-9.38-20.96-20.96s9.38-20.96,20.96-20.96,20.96,9.38,20.96,20.96-9.38,20.96-20.96,20.96Z"/><circle r="20.79" cx="1687.01" cy="1559.14"/><circle r="20.48" cx="1780.74" cy="1559.14"/><path d="M1874.46,1579.17c-11.06,0-20.03-8.97-20.03-20.03s8.97-20.03,20.03-20.03,20.03,8.97,20.03,20.03-8.97,20.03-20.03,20.03Z"/><circle r="19.44" cx="1968.18" cy="1559.14"/><circle r="18.7" cx="2061.91" cy="1559.14"/><path d="M2155.63,1576.96c-9.84,0-17.81-7.98-17.81-17.81s7.98-17.81,17.81-17.81,17.81,7.98,17.81,17.81-7.98,17.81-17.81,17.81Z"/><path d="M2249.35,1575.9c-9.26,0-16.76-7.5-16.76-16.76s7.5-16.76,16.76-16.76,16.76,7.5,16.76,16.76-7.5,16.76-16.76,16.76Z"/><circle r="15.54" cx="2343.07" cy="1559.14"/><circle r="14.14" cx="2436.8" cy="1559.14"/><path d="M2530.52,1571.69c-6.93,0-12.55-5.62-12.55-12.55s5.62-12.55,12.55-12.55,12.55,5.62,12.55,12.55-5.62,12.55-12.55,12.55Z"/><path d="M2624.24,1569.89c-5.94,0-10.75-4.81-10.75-10.75s4.81-10.75,10.75-10.75,10.75,4.81,10.75,10.75-4.81,10.75-10.75,10.75Z"/><path d="M2717.97,1567.87c-4.82,0-8.73-3.91-8.73-8.73s3.91-8.73,8.73-8.73,8.73,3.91,8.73,8.73-3.91,8.73-8.73,8.73Z"/><path d="M2811.69,1565.59c-3.56,0-6.45-2.89-6.45-6.45s2.89-6.45,6.45-6.45,6.45,2.89,6.45,6.45-2.89,6.45-6.45,6.45Z"/><circle r="3.85" cx="2905.41" cy="1559.14"/><path d="M2999.14,1560.01c-.48,0-.86-.39-.86-.86s.39-.86,.86-.86,.86,.39,.86,.86-.39,.86-.86,.86Z"/></g><g id="change1_4"><circle r="3.14" cx="93.72" cy="1677.43"/><circle r="5.78" cx="187.45" cy="1677.43"/><path d="M281.17,1685.57c-4.49,0-8.14-3.64-8.14-8.14s3.64-8.14,8.14-8.14,8.14,3.64,8.14,8.14-3.64,8.14-8.14,8.14Z"/><path d="M374.89,1687.64c-5.64,0-10.22-4.57-10.22-10.22s4.57-10.22,10.22-10.22,10.22,4.57,10.22,10.22-4.57,10.22-10.22,10.22Z"/><circle r="12.06" cx="468.61" cy="1677.43"/><path d="M562.34,1691.12c-7.57,0-13.7-6.13-13.7-13.7s6.13-13.7,13.7-13.7,13.7,6.13,13.7,13.7-6.13,13.7-13.7,13.7Z"/><path d="M656.06,1692.57c-8.36,0-15.15-6.78-15.15-15.15s6.78-15.15,15.15-15.15,15.15,6.78,15.15,15.15-6.78,15.15-15.15,15.15Z"/><path d="M749.78,1693.83c-9.06,0-16.41-7.35-16.41-16.41s7.35-16.41,16.41-16.41,16.41,7.35,16.41,16.41-7.34,16.41-16.41,16.41Z"/><path d="M843.51,1694.93c-9.67,0-17.5-7.84-17.5-17.5s7.84-17.5,17.5-17.5,17.5,7.84,17.5,17.5-7.84,17.5-17.5,17.5Z"/><path d="M937.23,1695.87c-10.19,0-18.45-8.26-18.45-18.45s8.26-18.45,18.45-18.45,18.45,8.26,18.45,18.45-8.26,18.45-18.45,18.45Z"/><path d="M1030.95,1696.65c-10.61,0-19.22-8.6-19.22-19.22s8.6-19.22,19.22-19.22,19.22,8.6,19.22,19.22-8.6,19.22-19.22,19.22Z"/><path d="M1124.68,1697.27c-10.96,0-19.85-8.89-19.85-19.85s8.89-19.85,19.85-19.85,19.85,8.89,19.85,19.85-8.89,19.85-19.85,19.85Z"/><path d="M1218.4,1697.76c-11.23,0-20.34-9.1-20.34-20.34s9.11-20.34,20.34-20.34,20.34,9.11,20.34,20.34-9.1,20.34-20.34,20.34Z"/><path d="M1312.12,1698.12c-11.43,0-20.69-9.26-20.69-20.69s9.26-20.69,20.69-20.69,20.69,9.26,20.69,20.69-9.26,20.69-20.69,20.69Z"/><circle r="20.91" cx="1405.84" cy="1677.43"/><path d="M1499.57,1698.42c-11.6,0-21-9.4-21-21s9.4-21,21-21,21,9.4,21,21-9.4,21-21,21Z"/><path d="M1593.29,1698.38c-11.57,0-20.96-9.38-20.96-20.96s9.38-20.96,20.96-20.96,20.96,9.38,20.96,20.96-9.38,20.96-20.96,20.96Z"/><circle r="20.79" cx="1687.01" cy="1677.43"/><circle r="20.48" cx="1780.74" cy="1677.43"/><path d="M1874.46,1697.46c-11.06,0-20.03-8.97-20.03-20.03s8.97-20.03,20.03-20.03,20.03,8.97,20.03,20.03-8.97,20.03-20.03,20.03Z"/><circle r="19.44" cx="1968.18" cy="1677.43"/><circle r="18.7" cx="2061.91" cy="1677.43"/><path d="M2155.63,1695.24c-9.84,0-17.81-7.98-17.81-17.81s7.98-17.81,17.81-17.81,17.81,7.98,17.81,17.81-7.98,17.81-17.81,17.81Z"/><path d="M2249.35,1694.19c-9.26,0-16.76-7.5-16.76-16.76s7.5-16.76,16.76-16.76,16.76,7.5,16.76,16.76-7.5,16.76-16.76,16.76Z"/><circle r="15.54" cx="2343.07" cy="1677.43"/><circle r="14.14" cx="2436.8" cy="1677.43"/><path d="M2530.52,1689.98c-6.93,0-12.55-5.62-12.55-12.55s5.62-12.55,12.55-12.55,12.55,5.62,12.55,12.55-5.62,12.55-12.55,12.55Z"/><path d="M2624.24,1688.18c-5.94,0-10.75-4.81-10.75-10.75s4.81-10.75,10.75-10.75,10.75,4.81,10.75,10.75-4.81,10.75-10.75,10.75Z"/><path d="M2717.97,1686.16c-4.82,0-8.73-3.91-8.73-8.73s3.91-8.73,8.73-8.73,8.73,3.91,8.73,8.73-3.91,8.73-8.73,8.73Z"/><path d="M2811.69,1683.87c-3.56,0-6.45-2.89-6.45-6.45s2.89-6.45,6.45-6.45,6.45,2.89,6.45,6.45-2.89,6.45-6.45,6.45Z"/><circle r="3.85" cx="2905.41" cy="1677.43"/><path d="M2999.14,1678.29c-.48,0-.86-.39-.86-.86s.39-.86,.86-.86,.86,.39,.86,.86-.39,.86-.86,.86Z"/></g></svg>